<?xml version="1.0" encoding="UTF-8"?>
<svg xmlns="http://www.w3.org/2000/svg" version="1.1" width="3157px" height="2964px" style="shape-rendering:geometricPrecision; text-rendering:geometricPrecision; image-rendering:optimizeQuality; fill-rule:evenodd; clip-rule:evenodd" xmlns:xlink="http://www.w3.org/1999/xlink">
<g><path style="opacity:0.997" fill="#1999fc" d="M 558.5,300.5 C 639.833,300.5 721.167,300.5 802.5,300.5C 802.5,383.167 802.5,465.833 802.5,548.5C 758.165,548.333 713.832,548.5 669.5,549C 607.883,553.658 564.05,583.824 538,639.5C 530.937,656.812 526.937,674.812 526,693.5C 525.667,873.833 525.333,1054.17 525,1234.5C 517.916,1323.18 480.416,1395.68 412.5,1452C 395.964,1464.44 378.297,1475.11 359.5,1484C 423.547,1514.21 470.047,1561.71 499,1626.5C 513.944,1660.27 522.61,1695.61 525,1732.5C 525.333,1911.17 525.667,2089.83 526,2268.5C 531.8,2336.61 566.633,2382.44 630.5,2406C 642.273,2409.49 654.273,2411.82 666.5,2413C 712.499,2413.5 758.499,2413.67 804.5,2413.5C 804.5,2496.5 804.5,2579.5 804.5,2662.5C 723.166,2662.67 641.833,2662.5 560.5,2662C 439.432,2651.75 348.265,2594.59 287,2490.5C 263.724,2447.4 250.39,2401.4 247,2352.5C 246.667,2145.17 246.333,1937.83 246,1730.5C 239.825,1671.28 208.992,1631.12 153.5,1610C 145.357,1607.21 137.024,1605.21 128.5,1604C 106.866,1602.59 85.1989,1602.09 63.5,1602.5C 63.5,1524.17 63.5,1445.83 63.5,1367.5C 80.17,1367.67 96.8367,1367.5 113.5,1367C 168.912,1362.73 209.078,1335.89 234,1286.5C 240.827,1270.52 244.827,1253.86 246,1236.5C 246.333,1027.17 246.667,817.833 247,608.5C 256.351,504.589 302.851,422.089 386.5,361C 438.324,325.225 495.658,305.058 558.5,300.5 Z"/></g>
<g><path style="opacity:0.996" fill="#1999fc" d="M 2352.5,300.5 C 2433.83,300.333 2515.17,300.5 2596.5,301C 2704.86,310.074 2790.36,358.574 2853,446.5C 2884.83,493.97 2903.16,546.303 2908,603.5C 2909.31,816.824 2909.98,1030.16 2910,1243.5C 2920.25,1309.75 2958.09,1350.25 3023.5,1365C 3046.1,1367.24 3068.77,1368.07 3091.5,1367.5C 3091.5,1445.83 3091.5,1524.17 3091.5,1602.5C 3069.8,1602.09 3048.13,1602.59 3026.5,1604C 2980.65,1611.88 2946.49,1636.04 2924,1676.5C 2916.71,1691.38 2912.04,1707.05 2910,1723.5C 2909.98,1934.84 2909.31,2146.18 2908,2357.5C 2895.69,2471.72 2840.85,2558.55 2743.5,2618C 2697.62,2644.14 2648.29,2658.8 2595.5,2662C 2513.83,2662.5 2432.17,2662.67 2350.5,2662.5C 2350.5,2579.5 2350.5,2496.5 2350.5,2413.5C 2396.5,2413.67 2442.5,2413.5 2488.5,2413C 2545.38,2407.4 2587.22,2379.57 2614,2329.5C 2622.25,2312.07 2627.25,2293.74 2629,2274.5C 2629.33,2095.83 2629.67,1917.17 2630,1738.5C 2635.28,1648.53 2672.11,1574.69 2740.5,1517C 2757.55,1503.47 2776.22,1492.47 2796.5,1484C 2720.7,1446.86 2669.86,1388.02 2644,1307.5C 2636.12,1281.74 2631.45,1255.41 2630,1228.5C 2629.67,1048.17 2629.33,867.833 2629,687.5C 2623.95,637.195 2600.45,598.362 2558.5,571C 2535.97,557.823 2511.63,550.49 2485.5,549C 2441.17,548.5 2396.83,548.333 2352.5,548.5C 2352.5,465.833 2352.5,383.167 2352.5,300.5 Z"/></g>
<g><path style="opacity:0.996" fill="#131824" d="M 1125.5,1229.5 C 1227.24,1226.28 1305.74,1266.95 1361,1351.5C 1400.54,1421.45 1407.21,1494.45 1381,1570.5C 1346,1656.49 1283.17,1709.66 1192.5,1730C 1102.08,1744.63 1024.58,1719.8 960,1655.5C 894.544,1580.57 876.21,1495.24 905,1399.5C 935.742,1317.09 993.242,1263.26 1077.5,1238C 1093.43,1233.96 1109.43,1231.12 1125.5,1229.5 Z"/></g>
<g><path style="opacity:0.996" fill="#131824" d="M 1993.5,1229.5 C 2102.24,1226.43 2183.41,1271.77 2237,1365.5C 2267.31,1426.93 2272.97,1490.6 2254,1556.5C 2222.36,1648.14 2159.53,1705.64 2065.5,1729C 1965.6,1746.48 1882.43,1717.32 1816,1641.5C 1762.01,1570.86 1747.01,1492.53 1771,1406.5C 1798.77,1324.4 1853.6,1269.23 1935.5,1241C 1954.6,1235.28 1973.94,1231.45 1993.5,1229.5 Z"/></g>
</svg>
